<?xml version="1.0" encoding="UTF-8" standalone="no"?>
<svg
   viewBox="0 0 139.38014 94.450023"
   class="text-black dark:text-white w-full max-w-[12rem] lg:max-w-[16rem] 2xl:max-w-[18rem]"
   version="1.1"
   id="svg5"
   sodipodi:docname="jotai.svg"
   inkscape:version="1.3.2 (091e20e, 2023-11-25, custom)"
   width="139.38014"
   height="94.45002"
   xmlns:inkscape="http://www.inkscape.org/namespaces/inkscape"
   xmlns:sodipodi="http://sodipodi.sourceforge.net/DTD/sodipodi-0.dtd"
   xmlns="http://www.w3.org/2000/svg"
   xmlns:svg="http://www.w3.org/2000/svg"
   xmlns:rdf="http://www.w3.org/1999/02/22-rdf-syntax-ns#"
   xmlns:cc="http://creativecommons.org/ns#"
   xmlns:dc="http://purl.org/dc/elements/1.1/">
  <defs
     id="defs5" />
  <sodipodi:namedview
     id="namedview5"
     pagecolor="#505050"
     bordercolor="#eeeeee"
     borderopacity="1"
     inkscape:showpageshadow="0"
     inkscape:pageopacity="0"
     inkscape:pagecheckerboard="0"
     inkscape:deskcolor="#505050"
     inkscape:zoom="4.4296137"
     inkscape:cx="144.595"
     inkscape:cy="44.360527"
     inkscape:window-width="1920"
     inkscape:window-height="1017"
     inkscape:window-x="-8"
     inkscape:window-y="-8"
     inkscape:window-maximized="1"
     inkscape:current-layer="svg5" />
  <title
     id="title1">Jotai</title>
  <path
     d="m 42.36,0 h 19.46 v 64.91 a 29.46,29.46 0 0 1 -4,15.61 A 27.19,27.19 0 0 1 46.64,90.75 36.26,36.26 0 0 1 30.05,94.36 37.56,37.56 0 0 1 14.8,91.36 24.3,24.3 0 0 1 4,82.27 Q 0,76.18 0,66.91 h 19.59 c 0.06,3.69 1.13,6.57 3.21,8.61 a 11.21,11.21 0 0 0 8.25,3.07 q 11.22,0 11.31,-13.68 z"
     fill="currentColor"
     id="path1" />
  <path
     d="m 105,94.45 q -10.59,0 -18.29,-4.52 A 30.54,30.54 0 0 1 74.82,77.29 40.52,40.52 0 0 1 70.64,58.45 40.75,40.75 0 0 1 74.82,39.52 30.6,30.6 0 0 1 86.71,26.88 35.52,35.52 0 0 1 105,22.36 a 35.58,35.58 0 0 1 18.3,4.52 30.57,30.57 0 0 1 11.88,12.64 40.76,40.76 0 0 1 4.19,18.93 40.52,40.52 0 0 1 -4.19,18.84 30.51,30.51 0 0 1 -11.88,12.64 q -7.71,4.53 -18.3,4.52 z M 127.14,0 V 10.5 H 82.87 V 0 Z m -22,79.45 a 12,12 0 0 0 10.89,-6 q 3.7,-6 3.7,-15.13 0,-9.13 -3.73,-15.16 a 12,12 0 0 0 -10.89,-6 12.15,12.15 0 0 0 -11,6 q -3.73,6 -3.73,15.16 0,9.16 3.73,15.13 a 12.16,12.16 0 0 0 10.98,6 z"
     fill="currentColor"
     id="path2" />
  <metadata
     id="metadata5">
    <rdf:RDF>
      <cc:Work
         rdf:about="">
        <dc:title>Jotai</dc:title>
      </cc:Work>
    </rdf:RDF>
  </metadata>
</svg>
