<svg xmlns="http://www.w3.org/2000/svg" xml:space="preserve" id="MAIN" x="0" y="0" style="enable-background:new 0 0 256 256" version="1.1" viewBox="0 0 256 256"><style>.st2{opacity:.5;fill:#010101}</style><path id="THING" d="M236.7 152.3c-2.4-2.7-7.6-4.1-10.6-1.7-6.6 5.4 1.4 10.4 6.8 9.5.9-.1 1.7-.5 2.5-1 3.3-2.3 3.1-4.9 1.3-6.8z" style="fill:#010101;stroke:#010101;stroke-width:4;stroke-linecap:round;stroke-linejoin:round"/><path id="HAND" d="M237.9 208.9c-2.1-2.9-3.5-6-4.2-8.7-1.3-4.8-1.4-9.9-.3-14.7 1.2-4.7 5-9.8 9.6-12.8-4.3-5-11.8-6.7-18.1-4.6-7 2.3-12 8.5-14.2 15.3-1.4 4.2-2.1 7.4-3.3 10.1s-3 4.9-6.7 7.4c-5.5 3.6-12 5.2-18.5 4.8-12.9-.7-25.7-7.1-33-17.5-8.3-11.8-9.9-27.8-5.4-41.5 3.8-11.6 12.2-22.9 22.6-29.5 9.4-6 22.9-11.5 33.9-8.9 3.8.9 6 3.3 7.6 6.5 1.6 3.2 2.5 7.1 3.6 10.7 1.3 4.2 3.8 8.6 7.4 11.7 3.5 3.2 8 5.2 13.1 4.7 3.1-.3 6-1.7 8.4-3.7-3.8-2.1-6.3-5.4-7.8-9.2-1.7-4.4-2-9.4-1.5-14.4 1.1-9.5 5.3-19.1 10.8-24.9-2.9-5.5-6.8-10.5-11.7-14.6-12.6-10.6-30.5-13.4-46.4-9.6-15.9 3.8-29.8 13.7-40.4 26-9.2 10.6-15.7 23.1-21.4 35.8 2.9-17 12-32.8 23.6-45.9C158.7 66.6 175 55 191.2 43.6c4.5-3.2 9.3-6.5 12.1-11.6 2.9-5.4 3.1-11.8.5-17.3-1.7-3.4-4.3-6.2-7.5-8.1-4.2 5-9.5 8.9-15.5 11.5-5.6 2.2-11.5 4-17.9 4.1-3.6.1-10.2.2-15.2-2.6-1.9 1.5-3.8 3.1-5.6 4.7-15.6 14.2-27.6 32-36.1 51.3-5.2 11.9-11.4 25.8-14.8 39.8.8-12.3 2.5-24.7 5.7-36.1 4.9-17.9 12-35.3 15.3-53.9.9-5.1 1.4-11-1.9-15.5-2.3-3.1-5.9-4.6-9.7-4.8h-1.4c-1.6 14-10.5 25.3-21.6 30.1-1.6.7-3.7 1-5.9 1-1.4 0-2.8 0-4.1-.4-10.6 23.6-14.6 49-16 74.8l-2-42.6c-.8-16.9-1.8-34.7-10.3-49.6-2-3.6-5-7-8.5-9.3-3.5-2.3-7.6-3.3-11.7-1.8-1 .4-1.9.8-2.7 1.4 3.5 6 4.5 14 3.4 21.5-1.1 7.6-4.1 14.9-9.3 19.4.7 7.1 1.6 14.1 2.4 21.1 2.9 27.1 2.6 54.7 2.6 82 0 22.5-3 45-1.4 67.7.3 4 .3 9.2 1.2 14.1s2.4 9.7 6 12.8c6.5 5.6 17.8 5 25 5.2 9.8.3 19.7-.1 29.6.2 24.4.6 48.7.3 73-.2h.9c22-.3 43.9.6 66-1 8.1-.6 17.3-1.8 22.9-8.3 3.8-4.5 4.9-10.5 5.7-16.1.6-4 1-8 1.4-12.1-3.3-1-6-3.4-7.9-6.1z" style="fill:#010101"/><g id="NAILS"><path id="_x35_" d="M245.2 176.1c-.2-.5-.5-1.1-.8-1.6-.4-.7-.8-1.3-1.3-1.8-4.6 3-8.4 8.1-9.6 12.8-1.2 4.9-1.1 9.9.3 14.7.7 2.6 2.1 5.8 4.2 8.7 2 2.7 4.6 5.1 8 6.2.1-1.4.3-2.8.4-4.2.6-7.6.9-15.3.8-22.9-.2-3.9-.3-8.1-2-11.9z" class="st2"/><path id="_x34_" d="M243.6 93.8c-.6-1.3-1.2-2.6-1.9-3.9-5.5 5.8-9.7 15.4-10.8 24.9-.6 5-.2 10 1.5 14.4 1.5 3.8 4.1 7 7.8 9.2 1.1-.9 2-1.9 2.9-3 .7-1 1.4-2 1.9-3 2.5-5 3.1-10.6 3.1-16.1 0-7.8-1.5-15.5-4.5-22.5z" class="st2"/><path id="_x33_" d="M192.3 4.9c-.8-.3-1.7-.5-2.5-.7-1.5-.2-3.1-.3-4.7-.3s-3.1.2-4.6.5C169.8 6 160 10.7 151.2 16.8c-1.2.9-2.5 1.8-3.7 2.7 4.9 2.8 11.6 2.7 15.2 2.6 6.4-.1 12.2-1.9 17.9-4.1 6-2.5 11.3-6.5 15.5-11.5-1.2-.6-2.5-1.2-3.8-1.6z" class="st2"/><path id="_x32_" d="M95.1 5.7c-1.9.4-3.8 1.1-5.5 2-8.9 4.8-14.7 13.6-19.2 22.4-.3.6-.6 1.3-.9 1.9-.6 1.3-1.2 2.6-1.8 3.8 1.3.4 2.7.4 4.1.4 2.2 0 4.3-.3 5.9-1 11.1-4.8 19.9-16.1 21.6-30.1-1.5.1-2.9.3-4.2.6z" class="st2"/><path id="_x31_" d="M16.4 8.7c-1.2.8-2.1 1.8-2.9 3-.8 1.2-1.5 2.4-2 3.8-1.4 3.6-1.9 7.8-2 11.6-.2 5.7.1 11.5.5 17.2.1 1.8.3 3.5.5 5.3 5.2-4.5 8.3-11.8 9.3-19.4 1.1-7.5.2-15.5-3.4-21.5z" class="st2"/></g></svg>