<?xml version="1.0" encoding="utf-8"?>
<!-- Generator: Adobe Illustrator 28.0.0, SVG Export Plug-In . SVG Version: 6.00 Build 0)  -->
<svg version="1.1" id="MAIN" xmlns="http://www.w3.org/2000/svg" xmlns:xlink="http://www.w3.org/1999/xlink" x="0px" y="0px"
	 viewBox="0 0 256 256" style="enable-background:new 0 0 256 256;" xml:space="preserve">
<style type="text/css">
	.st0{fill:#010101;stroke:#010101;stroke-width:4;stroke-linecap:round;stroke-linejoin:round;}
	.st1{fill:#010101;}
	.st2{opacity:0.5;fill:#010101;}
</style>
<path id="THING" class="st0" d="M236.7,152.3c-2.4-2.7-7.6-4.1-10.6-1.7c-6.6,5.4,1.4,10.4,6.8,9.5c0.9-0.1,1.7-0.5,2.5-1
	C238.7,156.8,238.5,154.2,236.7,152.3z"/>
<path id="HAND" class="st1" d="M237.9,208.9c-2.1-2.9-3.5-6-4.2-8.7c-1.3-4.8-1.4-9.9-0.3-14.7l0,0l0,0c1.2-4.7,5-9.8,9.6-12.8
	c-4.3-5-11.8-6.7-18.1-4.6c-7,2.3-12,8.5-14.2,15.3h0c-1.4,4.2-2.1,7.4-3.3,10.1s-3,4.9-6.7,7.4c-5.5,3.6-12,5.2-18.5,4.8h0h0
	c-12.9-0.7-25.7-7.1-33-17.5h0c-8.3-11.8-9.9-27.8-5.4-41.5v0c3.8-11.6,12.2-22.9,22.6-29.5h0c9.4-6,22.9-11.5,33.9-8.9
	c3.8,0.9,6,3.3,7.6,6.5c1.6,3.2,2.5,7.1,3.6,10.7c1.3,4.2,3.8,8.6,7.4,11.7c3.5,3.2,8,5.2,13.1,4.7l0,0c3.1-0.3,6-1.7,8.4-3.7
	c-3.8-2.1-6.3-5.4-7.8-9.2c-1.7-4.4-2-9.4-1.5-14.4c1.1-9.5,5.3-19.1,10.8-24.9c-2.9-5.5-6.8-10.5-11.7-14.6h0
	c-12.6-10.6-30.5-13.4-46.4-9.6c-15.9,3.8-29.8,13.7-40.4,26c-9.2,10.6-15.7,23.1-21.4,35.8c2.9-17,12-32.8,23.6-45.9
	c13.1-14.8,29.4-26.4,45.6-37.8c4.5-3.2,9.3-6.5,12.1-11.6l0,0l0,0c2.9-5.4,3.1-11.8,0.5-17.3l0,0l0,0c-1.7-3.4-4.3-6.2-7.5-8.1
	c-4.2,5-9.5,8.9-15.5,11.5l0,0l0,0c-5.6,2.2-11.5,4-17.9,4.1c-3.6,0.1-10.2,0.2-15.2-2.6c-1.9,1.5-3.8,3.1-5.6,4.7h0
	c-15.6,14.2-27.6,32-36.1,51.3c-5.2,11.9-11.4,25.8-14.8,39.8c0.8-12.3,2.5-24.7,5.7-36.1v0c4.9-17.9,12-35.3,15.3-53.9v0
	c0.9-5.1,1.4-11-1.9-15.5v0c-2.3-3.1-5.9-4.6-9.7-4.8c-0.4,0-0.9,0-1.4,0c-1.6,14-10.5,25.3-21.6,30.1l0,0c-1.6,0.7-3.7,1-5.9,1
	c-1.4,0-2.8,0-4.1-0.4c-10.6,23.6-14.6,49-16,74.8l-2-42.6c-0.8-16.9-1.8-34.7-10.3-49.6l0,0c-2-3.6-5-7-8.5-9.3
	c-3.5-2.3-7.6-3.3-11.7-1.8c-1,0.4-1.9,0.8-2.7,1.4c3.5,6,4.5,14,3.4,21.5c-1.1,7.6-4.1,14.9-9.3,19.4c0.7,7.1,1.6,14.1,2.4,21.1
	c2.9,27.1,2.6,54.7,2.6,82c0,22.5-3,45-1.4,67.7c0.3,4,0.3,9.2,1.2,14.1s2.4,9.7,6,12.8v0h0c6.5,5.6,17.8,5,25,5.2
	c9.8,0.3,19.7-0.1,29.6,0.2c24.4,0.6,48.7,0.3,73-0.2h0.9c22-0.3,43.9,0.6,66-1c8.1-0.6,17.3-1.8,22.9-8.3
	c3.8-4.5,4.9-10.5,5.7-16.1c0.6-4,1-8,1.4-12.1C242.5,214,239.8,211.6,237.9,208.9z"/>
<g id="NAILS">
	<path id="_x35_" class="st2" d="M245.2,176.1c-0.2-0.5-0.5-1.1-0.8-1.6c-0.4-0.7-0.8-1.3-1.3-1.8c-4.6,3-8.4,8.1-9.6,12.8l0,0l0,0
		c-1.2,4.9-1.1,9.9,0.3,14.7c0.7,2.6,2.1,5.8,4.2,8.7c2,2.7,4.6,5.1,8,6.2c0.1-1.4,0.3-2.8,0.4-4.2c0.6-7.6,0.9-15.3,0.8-22.9v0
		C247,184.1,246.9,179.9,245.2,176.1z"/>
	<path id="_x34_" class="st2" d="M243.6,93.8c-0.6-1.3-1.2-2.6-1.9-3.9c-5.5,5.8-9.7,15.4-10.8,24.9c-0.6,5-0.2,10,1.5,14.4
		c1.5,3.8,4.1,7,7.8,9.2c1.1-0.9,2-1.9,2.9-3c0.7-1,1.4-2,1.9-3c2.5-5,3.1-10.6,3.1-16.1v0v0C248.1,108.5,246.6,100.8,243.6,93.8z"
		/>
	<path id="_x33_" class="st2" d="M192.3,4.9c-0.8-0.3-1.7-0.5-2.5-0.7l0,0l0,0c-1.5-0.2-3.1-0.3-4.7-0.3c-1.6,0-3.1,0.2-4.6,0.5
		C169.8,6,160,10.7,151.2,16.8c-1.2,0.9-2.5,1.8-3.7,2.7c4.9,2.8,11.6,2.7,15.2,2.6c6.4-0.1,12.2-1.9,17.9-4.1l0,0l0,0
		c6-2.5,11.3-6.5,15.5-11.5C194.9,5.9,193.6,5.3,192.3,4.9z"/>
	<path id="_x32_" class="st2" d="M95.1,5.7c-1.9,0.4-3.8,1.1-5.5,2v0c-8.9,4.8-14.7,13.6-19.2,22.4v0h0c-0.3,0.6-0.6,1.3-0.9,1.9
		c-0.6,1.3-1.2,2.6-1.8,3.8c1.3,0.4,2.7,0.4,4.1,0.4c2.2,0,4.3-0.3,5.9-1l0,0c11.1-4.8,19.9-16.1,21.6-30.1
		C97.8,5.2,96.4,5.4,95.1,5.7z"/>
	<path id="_x31_" class="st2" d="M16.4,8.7c-1.2,0.8-2.1,1.8-2.9,3c-0.8,1.2-1.5,2.4-2,3.8c-1.4,3.6-1.9,7.8-2,11.6
		C9.3,32.8,9.6,38.6,10,44.3c0.1,1.8,0.3,3.5,0.5,5.3c5.2-4.5,8.3-11.8,9.3-19.4C20.9,22.7,20,14.7,16.4,8.7z"/>
</g>
</svg>
